<mxfile host="app.diagrams.net" modified="2023-07-07T16:58:55.880Z" agent="Mozilla/5.0 (Windows NT 10.0; Win64; x64) AppleWebKit/537.36 (KHTML, like Gecko) Chrome/113.0.0.0 Safari/537.36 OPR/99.0.0.0" etag="QB_DBZ8ThhAsz-ld9ukq" version="21.6.1" type="google">
  <diagram name="PÃ¡gina-1" id="K4VZ-ZxBRNYr0ZyjHb1p">
    <mxGraphModel grid="1" page="1" gridSize="10" guides="1" tooltips="1" connect="1" arrows="1" fold="1" pageScale="1" pageWidth="827" pageHeight="1169" math="0" shadow="0">
      <root>
        <mxCell id="0" />
        <mxCell id="1" parent="0" />
        <mxCell id="sTXnCufKBytnzqRQy0jV-4" value="Estacionamento" style="swimlane;fontStyle=1;align=center;verticalAlign=top;childLayout=stackLayout;horizontal=1;startSize=26;horizontalStack=0;resizeParent=1;resizeParentMax=0;resizeLast=0;collapsible=1;marginBottom=0;whiteSpace=wrap;html=1;" vertex="1" parent="1">
          <mxGeometry x="40" y="40" width="680" height="350" as="geometry" />
        </mxCell>
        <mxCell id="sTXnCufKBytnzqRQy0jV-5" value="- nome: String" style="text;strokeColor=none;fillColor=none;align=left;verticalAlign=top;spacingLeft=4;spacingRight=4;overflow=hidden;rotatable=0;points=[[0,0.5],[1,0.5]];portConstraint=eastwest;whiteSpace=wrap;html=1;" vertex="1" parent="sTXnCufKBytnzqRQy0jV-4">
          <mxGeometry y="26" width="680" height="26" as="geometry" />
        </mxCell>
        <mxCell id="sTXnCufKBytnzqRQy0jV-8" value="- int: Capacidade" style="text;strokeColor=none;fillColor=none;align=left;verticalAlign=top;spacingLeft=4;spacingRight=4;overflow=hidden;rotatable=0;points=[[0,0.5],[1,0.5]];portConstraint=eastwest;whiteSpace=wrap;html=1;" vertex="1" parent="sTXnCufKBytnzqRQy0jV-4">
          <mxGeometry y="52" width="680" height="26" as="geometry" />
        </mxCell>
        <mxCell id="sTXnCufKBytnzqRQy0jV-9" value="- float: valCon" style="text;strokeColor=none;fillColor=none;align=left;verticalAlign=top;spacingLeft=4;spacingRight=4;overflow=hidden;rotatable=0;points=[[0,0.5],[1,0.5]];portConstraint=eastwest;whiteSpace=wrap;html=1;" vertex="1" parent="sTXnCufKBytnzqRQy0jV-4">
          <mxGeometry y="78" width="680" height="26" as="geometry" />
        </mxCell>
        <mxCell id="sTXnCufKBytnzqRQy0jV-6" value="" style="line;strokeWidth=1;fillColor=none;align=left;verticalAlign=middle;spacingTop=-1;spacingLeft=3;spacingRight=3;rotatable=0;labelPosition=right;points=[];portConstraint=eastwest;strokeColor=inherit;" vertex="1" parent="sTXnCufKBytnzqRQy0jV-4">
          <mxGeometry y="104" width="680" height="8" as="geometry" />
        </mxCell>
        <mxCell id="sTXnCufKBytnzqRQy0jV-7" value="+ cadastrarAcesso(String placa, Boolean mensalista, Data dtEntrada, Data dtSaida,Horario entrada, Horario saida): void" style="text;strokeColor=none;fillColor=none;align=left;verticalAlign=top;spacingLeft=4;spacingRight=4;overflow=hidden;rotatable=0;points=[[0,0.5],[1,0.5]];portConstraint=eastwest;whiteSpace=wrap;html=1;" vertex="1" parent="sTXnCufKBytnzqRQy0jV-4">
          <mxGeometry y="112" width="680" height="38" as="geometry" />
        </mxCell>
        <mxCell id="sTXnCufKBytnzqRQy0jV-12" value="+ apagarAcesso(): void" style="text;strokeColor=none;fillColor=none;align=left;verticalAlign=top;spacingLeft=4;spacingRight=4;overflow=hidden;rotatable=0;points=[[0,0.5],[1,0.5]];portConstraint=eastwest;whiteSpace=wrap;html=1;" vertex="1" parent="sTXnCufKBytnzqRQy0jV-4">
          <mxGeometry y="150" width="680" height="38" as="geometry" />
        </mxCell>
        <mxCell id="sTXnCufKBytnzqRQy0jV-13" value="+ cadastrarValores(float fracao, float desNoturno, float desHora, float diurna, float mensalista, float evento): void" style="text;strokeColor=none;fillColor=none;align=left;verticalAlign=top;spacingLeft=4;spacingRight=4;overflow=hidden;rotatable=0;points=[[0,0.5],[1,0.5]];portConstraint=eastwest;whiteSpace=wrap;html=1;" vertex="1" parent="sTXnCufKBytnzqRQy0jV-4">
          <mxGeometry y="188" width="680" height="38" as="geometry" />
        </mxCell>
        <mxCell id="sTXnCufKBytnzqRQy0jV-14" value="+ cadastrarEvento(String nome, Data dataInicio, Data dataFim, Horario hora Inicio, Horario horaFim): void" style="text;strokeColor=none;fillColor=none;align=left;verticalAlign=top;spacingLeft=4;spacingRight=4;overflow=hidden;rotatable=0;points=[[0,0.5],[1,0.5]];portConstraint=eastwest;whiteSpace=wrap;html=1;" vertex="1" parent="sTXnCufKBytnzqRQy0jV-4">
          <mxGeometry y="226" width="680" height="38" as="geometry" />
        </mxCell>
        <mxCell id="sTXnCufKBytnzqRQy0jV-15" value="+ calcRetorno(): void" style="text;strokeColor=none;fillColor=none;align=left;verticalAlign=top;spacingLeft=4;spacingRight=4;overflow=hidden;rotatable=0;points=[[0,0.5],[1,0.5]];portConstraint=eastwest;whiteSpace=wrap;html=1;" vertex="1" parent="sTXnCufKBytnzqRQy0jV-4">
          <mxGeometry y="264" width="680" height="38" as="geometry" />
        </mxCell>
        <mxCell id="sTXnCufKBytnzqRQy0jV-16" value="+ boolean acessoEvento( ArrayList&amp;lt;Evento&amp;gt; eventos, Data dtAcesso): void" style="text;strokeColor=none;fillColor=none;align=left;verticalAlign=top;spacingLeft=4;spacingRight=4;overflow=hidden;rotatable=0;points=[[0,0.5],[1,0.5]];portConstraint=eastwest;whiteSpace=wrap;html=1;" vertex="1" parent="sTXnCufKBytnzqRQy0jV-4">
          <mxGeometry y="302" width="680" height="48" as="geometry" />
        </mxCell>
        <mxCell id="sTXnCufKBytnzqRQy0jV-17" value="&lt;i&gt;Acesso&lt;/i&gt;" style="swimlane;fontStyle=1;align=center;verticalAlign=top;childLayout=stackLayout;horizontal=1;startSize=26;horizontalStack=0;resizeParent=1;resizeParentMax=0;resizeLast=0;collapsible=1;marginBottom=0;whiteSpace=wrap;html=1;" vertex="1" parent="1">
          <mxGeometry x="40" y="467" width="360" height="236" as="geometry" />
        </mxCell>
        <mxCell id="sTXnCufKBytnzqRQy0jV-18" value="- placa: String" style="text;strokeColor=none;fillColor=none;align=left;verticalAlign=top;spacingLeft=4;spacingRight=4;overflow=hidden;rotatable=0;points=[[0,0.5],[1,0.5]];portConstraint=eastwest;whiteSpace=wrap;html=1;" vertex="1" parent="sTXnCufKBytnzqRQy0jV-17">
          <mxGeometry y="26" width="360" height="26" as="geometry" />
        </mxCell>
        <mxCell id="sTXnCufKBytnzqRQy0jV-21" value="&lt;span style=&quot;color: rgb(0, 0, 0); font-family: Helvetica; font-size: 12px; font-style: normal; font-variant-ligatures: normal; font-variant-caps: normal; font-weight: 400; letter-spacing: normal; orphans: 2; text-align: left; text-indent: 0px; text-transform: none; widows: 2; word-spacing: 0px; -webkit-text-stroke-width: 0px; background-color: rgb(251, 251, 251); text-decoration-thickness: initial; text-decoration-style: initial; text-decoration-color: initial; float: none; display: inline !important;&quot;&gt;- entrada: Horario&lt;/span&gt;" style="text;strokeColor=none;fillColor=none;align=left;verticalAlign=top;spacingLeft=4;spacingRight=4;overflow=hidden;rotatable=0;points=[[0,0.5],[1,0.5]];portConstraint=eastwest;whiteSpace=wrap;html=1;" vertex="1" parent="sTXnCufKBytnzqRQy0jV-17">
          <mxGeometry y="52" width="360" height="26" as="geometry" />
        </mxCell>
        <mxCell id="sTXnCufKBytnzqRQy0jV-22" value="- saida: Horario" style="text;strokeColor=none;fillColor=none;align=left;verticalAlign=top;spacingLeft=4;spacingRight=4;overflow=hidden;rotatable=0;points=[[0,0.5],[1,0.5]];portConstraint=eastwest;whiteSpace=wrap;html=1;" vertex="1" parent="sTXnCufKBytnzqRQy0jV-17">
          <mxGeometry y="78" width="360" height="26" as="geometry" />
        </mxCell>
        <mxCell id="sTXnCufKBytnzqRQy0jV-23" value="- dtEntrada: Data" style="text;strokeColor=none;fillColor=none;align=left;verticalAlign=top;spacingLeft=4;spacingRight=4;overflow=hidden;rotatable=0;points=[[0,0.5],[1,0.5]];portConstraint=eastwest;whiteSpace=wrap;html=1;" vertex="1" parent="sTXnCufKBytnzqRQy0jV-17">
          <mxGeometry y="104" width="360" height="26" as="geometry" />
        </mxCell>
        <mxCell id="sTXnCufKBytnzqRQy0jV-24" value="- dtSaida: Data" style="text;strokeColor=none;fillColor=none;align=left;verticalAlign=top;spacingLeft=4;spacingRight=4;overflow=hidden;rotatable=0;points=[[0,0.5],[1,0.5]];portConstraint=eastwest;whiteSpace=wrap;html=1;" vertex="1" parent="sTXnCufKBytnzqRQy0jV-17">
          <mxGeometry y="130" width="360" height="26" as="geometry" />
        </mxCell>
        <mxCell id="sTXnCufKBytnzqRQy0jV-19" value="" style="line;strokeWidth=1;fillColor=none;align=left;verticalAlign=middle;spacingTop=-1;spacingLeft=3;spacingRight=3;rotatable=0;labelPosition=right;points=[];portConstraint=eastwest;strokeColor=inherit;" vertex="1" parent="sTXnCufKBytnzqRQy0jV-17">
          <mxGeometry y="156" width="360" height="8" as="geometry" />
        </mxCell>
        <mxCell id="sTXnCufKBytnzqRQy0jV-20" value="&lt;i&gt;+ calcPrice(Horario abrir, Horario fechar, Valores valores): float&lt;/i&gt;" style="text;strokeColor=none;fillColor=none;align=left;verticalAlign=top;spacingLeft=4;spacingRight=4;overflow=hidden;rotatable=0;points=[[0,0.5],[1,0.5]];portConstraint=eastwest;whiteSpace=wrap;html=1;" vertex="1" parent="sTXnCufKBytnzqRQy0jV-17">
          <mxGeometry y="164" width="360" height="36" as="geometry" />
        </mxCell>
        <mxCell id="sTXnCufKBytnzqRQy0jV-25" value="&lt;u&gt;+checkInOut(Data entrada, Data saida): Int&lt;/u&gt;" style="text;strokeColor=none;fillColor=none;align=left;verticalAlign=top;spacingLeft=4;spacingRight=4;overflow=hidden;rotatable=0;points=[[0,0.5],[1,0.5]];portConstraint=eastwest;whiteSpace=wrap;html=1;" vertex="1" parent="sTXnCufKBytnzqRQy0jV-17">
          <mxGeometry y="200" width="360" height="36" as="geometry" />
        </mxCell>
        <mxCell id="sTXnCufKBytnzqRQy0jV-26" value="AcessoHoraCheia" style="swimlane;fontStyle=1;align=center;verticalAlign=top;childLayout=stackLayout;horizontal=1;startSize=26;horizontalStack=0;resizeParent=1;resizeParentMax=0;resizeLast=0;collapsible=1;marginBottom=0;whiteSpace=wrap;html=1;" vertex="1" parent="1">
          <mxGeometry x="275" y="800" width="210" height="80" as="geometry" />
        </mxCell>
        <mxCell id="sTXnCufKBytnzqRQy0jV-28" value="" style="line;strokeWidth=1;fillColor=none;align=left;verticalAlign=middle;spacingTop=-1;spacingLeft=3;spacingRight=3;rotatable=0;labelPosition=right;points=[];portConstraint=eastwest;strokeColor=inherit;" vertex="1" parent="sTXnCufKBytnzqRQy0jV-26">
          <mxGeometry y="26" width="210" height="8" as="geometry" />
        </mxCell>
        <mxCell id="sTXnCufKBytnzqRQy0jV-29" value="&lt;span style=&quot;border-color: var(--border-color); font-size: 10px;&quot;&gt;+ calcPrice(Horario abrir, Horario fechar, Valores valores): float&lt;/span&gt;" style="text;strokeColor=none;fillColor=none;align=left;verticalAlign=top;spacingLeft=4;spacingRight=4;overflow=hidden;rotatable=0;points=[[0,0.5],[1,0.5]];portConstraint=eastwest;whiteSpace=wrap;html=1;fontSize=10;" vertex="1" parent="sTXnCufKBytnzqRQy0jV-26">
          <mxGeometry y="34" width="210" height="46" as="geometry" />
        </mxCell>
        <mxCell id="sTXnCufKBytnzqRQy0jV-30" value="AcessoFracaoHora" style="swimlane;fontStyle=1;align=center;verticalAlign=top;childLayout=stackLayout;horizontal=1;startSize=26;horizontalStack=0;resizeParent=1;resizeParentMax=0;resizeLast=0;collapsible=1;marginBottom=0;whiteSpace=wrap;html=1;" vertex="1" parent="1">
          <mxGeometry x="40" y="800" width="210" height="80" as="geometry" />
        </mxCell>
        <mxCell id="sTXnCufKBytnzqRQy0jV-31" value="" style="line;strokeWidth=1;fillColor=none;align=left;verticalAlign=middle;spacingTop=-1;spacingLeft=3;spacingRight=3;rotatable=0;labelPosition=right;points=[];portConstraint=eastwest;strokeColor=inherit;" vertex="1" parent="sTXnCufKBytnzqRQy0jV-30">
          <mxGeometry y="26" width="210" height="8" as="geometry" />
        </mxCell>
        <mxCell id="sTXnCufKBytnzqRQy0jV-32" value="&lt;span style=&quot;border-color: var(--border-color); font-size: 10px;&quot;&gt;+ calcPrice(Horario abrir, Horario fechar, Valores valores): float&lt;/span&gt;" style="text;strokeColor=none;fillColor=none;align=left;verticalAlign=top;spacingLeft=4;spacingRight=4;overflow=hidden;rotatable=0;points=[[0,0.5],[1,0.5]];portConstraint=eastwest;whiteSpace=wrap;html=1;fontSize=10;" vertex="1" parent="sTXnCufKBytnzqRQy0jV-30">
          <mxGeometry y="34" width="210" height="46" as="geometry" />
        </mxCell>
        <mxCell id="sTXnCufKBytnzqRQy0jV-33" value="AcessoEvento" style="swimlane;fontStyle=1;align=center;verticalAlign=top;childLayout=stackLayout;horizontal=1;startSize=26;horizontalStack=0;resizeParent=1;resizeParentMax=0;resizeLast=0;collapsible=1;marginBottom=0;whiteSpace=wrap;html=1;" vertex="1" parent="1">
          <mxGeometry x="530" y="680" width="200" height="80" as="geometry" />
        </mxCell>
        <mxCell id="sTXnCufKBytnzqRQy0jV-34" value="" style="line;strokeWidth=1;fillColor=none;align=left;verticalAlign=middle;spacingTop=-1;spacingLeft=3;spacingRight=3;rotatable=0;labelPosition=right;points=[];portConstraint=eastwest;strokeColor=inherit;" vertex="1" parent="sTXnCufKBytnzqRQy0jV-33">
          <mxGeometry y="26" width="200" height="8" as="geometry" />
        </mxCell>
        <mxCell id="sTXnCufKBytnzqRQy0jV-35" value="&lt;span style=&quot;border-color: var(--border-color); font-size: 10px;&quot;&gt;&lt;font style=&quot;font-size: 10px;&quot;&gt;+ calcPrice(Horario abrir, Horario fechar, Valores valores): float&lt;/font&gt;&lt;/span&gt;" style="text;strokeColor=none;fillColor=none;align=left;verticalAlign=top;spacingLeft=4;spacingRight=4;overflow=hidden;rotatable=0;points=[[0,0.5],[1,0.5]];portConstraint=eastwest;whiteSpace=wrap;html=1;fontSize=10;" vertex="1" parent="sTXnCufKBytnzqRQy0jV-33">
          <mxGeometry y="34" width="200" height="46" as="geometry" />
        </mxCell>
        <mxCell id="sTXnCufKBytnzqRQy0jV-36" value="Mensalista" style="swimlane;fontStyle=1;align=center;verticalAlign=top;childLayout=stackLayout;horizontal=1;startSize=26;horizontalStack=0;resizeParent=1;resizeParentMax=0;resizeLast=0;collapsible=1;marginBottom=0;whiteSpace=wrap;html=1;" vertex="1" parent="1">
          <mxGeometry x="530" y="570" width="200" height="80" as="geometry" />
        </mxCell>
        <mxCell id="sTXnCufKBytnzqRQy0jV-37" value="" style="line;strokeWidth=1;fillColor=none;align=left;verticalAlign=middle;spacingTop=-1;spacingLeft=3;spacingRight=3;rotatable=0;labelPosition=right;points=[];portConstraint=eastwest;strokeColor=inherit;" vertex="1" parent="sTXnCufKBytnzqRQy0jV-36">
          <mxGeometry y="26" width="200" height="8" as="geometry" />
        </mxCell>
        <mxCell id="sTXnCufKBytnzqRQy0jV-38" value="+ calcPrice(Horario abrir, Horario fechar, Valores valores): float" style="text;strokeColor=none;fillColor=none;align=left;verticalAlign=top;spacingLeft=4;spacingRight=4;overflow=hidden;rotatable=0;points=[[0,0.5],[1,0.5]];portConstraint=eastwest;whiteSpace=wrap;html=1;fontSize=10;" vertex="1" parent="sTXnCufKBytnzqRQy0jV-36">
          <mxGeometry y="34" width="200" height="46" as="geometry" />
        </mxCell>
        <mxCell id="sTXnCufKBytnzqRQy0jV-39" value="AcessoDiaria" style="swimlane;fontStyle=1;align=center;verticalAlign=top;childLayout=stackLayout;horizontal=1;startSize=26;horizontalStack=0;resizeParent=1;resizeParentMax=0;resizeLast=0;collapsible=1;marginBottom=0;whiteSpace=wrap;html=1;" vertex="1" parent="1">
          <mxGeometry x="530" y="800" width="200" height="80" as="geometry" />
        </mxCell>
        <mxCell id="sTXnCufKBytnzqRQy0jV-40" value="" style="line;strokeWidth=1;fillColor=none;align=left;verticalAlign=middle;spacingTop=-1;spacingLeft=3;spacingRight=3;rotatable=0;labelPosition=right;points=[];portConstraint=eastwest;strokeColor=inherit;" vertex="1" parent="sTXnCufKBytnzqRQy0jV-39">
          <mxGeometry y="26" width="200" height="8" as="geometry" />
        </mxCell>
        <mxCell id="sTXnCufKBytnzqRQy0jV-41" value="&lt;span style=&quot;border-color: var(--border-color); font-size: 10px;&quot;&gt;+ calcPrice(Horario abrir, Horario fechar, Valores valores): float&lt;/span&gt;" style="text;strokeColor=none;fillColor=none;align=left;verticalAlign=top;spacingLeft=4;spacingRight=4;overflow=hidden;rotatable=0;points=[[0,0.5],[1,0.5]];portConstraint=eastwest;whiteSpace=wrap;html=1;fontSize=10;" vertex="1" parent="sTXnCufKBytnzqRQy0jV-39">
          <mxGeometry y="34" width="200" height="46" as="geometry" />
        </mxCell>
        <mxCell id="sTXnCufKBytnzqRQy0jV-42" value="Horario" style="swimlane;fontStyle=1;align=center;verticalAlign=top;childLayout=stackLayout;horizontal=1;startSize=26;horizontalStack=0;resizeParent=1;resizeParentMax=0;resizeLast=0;collapsible=1;marginBottom=0;whiteSpace=wrap;html=1;" vertex="1" parent="1">
          <mxGeometry x="827" y="40" width="340" height="112" as="geometry" />
        </mxCell>
        <mxCell id="sTXnCufKBytnzqRQy0jV-43" value="- hora: int" style="text;strokeColor=none;fillColor=none;align=left;verticalAlign=top;spacingLeft=4;spacingRight=4;overflow=hidden;rotatable=0;points=[[0,0.5],[1,0.5]];portConstraint=eastwest;whiteSpace=wrap;html=1;" vertex="1" parent="sTXnCufKBytnzqRQy0jV-42">
          <mxGeometry y="26" width="340" height="26" as="geometry" />
        </mxCell>
        <mxCell id="sTXnCufKBytnzqRQy0jV-46" value="- minuto: int" style="text;strokeColor=none;fillColor=none;align=left;verticalAlign=top;spacingLeft=4;spacingRight=4;overflow=hidden;rotatable=0;points=[[0,0.5],[1,0.5]];portConstraint=eastwest;whiteSpace=wrap;html=1;" vertex="1" parent="sTXnCufKBytnzqRQy0jV-42">
          <mxGeometry y="52" width="340" height="26" as="geometry" />
        </mxCell>
        <mxCell id="sTXnCufKBytnzqRQy0jV-44" value="" style="line;strokeWidth=1;fillColor=none;align=left;verticalAlign=middle;spacingTop=-1;spacingLeft=3;spacingRight=3;rotatable=0;labelPosition=right;points=[];portConstraint=eastwest;strokeColor=inherit;" vertex="1" parent="sTXnCufKBytnzqRQy0jV-42">
          <mxGeometry y="78" width="340" height="8" as="geometry" />
        </mxCell>
        <mxCell id="sTXnCufKBytnzqRQy0jV-45" value="+ diferencaMinutos(Horario entrada, Horario saida): int" style="text;strokeColor=none;fillColor=none;align=left;verticalAlign=top;spacingLeft=4;spacingRight=4;overflow=hidden;rotatable=0;points=[[0,0.5],[1,0.5]];portConstraint=eastwest;whiteSpace=wrap;html=1;" vertex="1" parent="sTXnCufKBytnzqRQy0jV-42">
          <mxGeometry y="86" width="340" height="26" as="geometry" />
        </mxCell>
        <mxCell id="sTXnCufKBytnzqRQy0jV-47" value="Data" style="swimlane;fontStyle=1;align=center;verticalAlign=top;childLayout=stackLayout;horizontal=1;startSize=26;horizontalStack=0;resizeParent=1;resizeParentMax=0;resizeLast=0;collapsible=1;marginBottom=0;whiteSpace=wrap;html=1;" vertex="1" parent="1">
          <mxGeometry x="-420" y="570" width="340" height="164" as="geometry" />
        </mxCell>
        <mxCell id="sTXnCufKBytnzqRQy0jV-48" value="- dia: int" style="text;strokeColor=none;fillColor=none;align=left;verticalAlign=top;spacingLeft=4;spacingRight=4;overflow=hidden;rotatable=0;points=[[0,0.5],[1,0.5]];portConstraint=eastwest;whiteSpace=wrap;html=1;" vertex="1" parent="sTXnCufKBytnzqRQy0jV-47">
          <mxGeometry y="26" width="340" height="26" as="geometry" />
        </mxCell>
        <mxCell id="sTXnCufKBytnzqRQy0jV-49" value="- mes: int" style="text;strokeColor=none;fillColor=none;align=left;verticalAlign=top;spacingLeft=4;spacingRight=4;overflow=hidden;rotatable=0;points=[[0,0.5],[1,0.5]];portConstraint=eastwest;whiteSpace=wrap;html=1;" vertex="1" parent="sTXnCufKBytnzqRQy0jV-47">
          <mxGeometry y="52" width="340" height="26" as="geometry" />
        </mxCell>
        <mxCell id="sTXnCufKBytnzqRQy0jV-52" value="- ano: int" style="text;strokeColor=none;fillColor=none;align=left;verticalAlign=top;spacingLeft=4;spacingRight=4;overflow=hidden;rotatable=0;points=[[0,0.5],[1,0.5]];portConstraint=eastwest;whiteSpace=wrap;html=1;" vertex="1" parent="sTXnCufKBytnzqRQy0jV-47">
          <mxGeometry y="78" width="340" height="26" as="geometry" />
        </mxCell>
        <mxCell id="sTXnCufKBytnzqRQy0jV-50" value="" style="line;strokeWidth=1;fillColor=none;align=left;verticalAlign=middle;spacingTop=-1;spacingLeft=3;spacingRight=3;rotatable=0;labelPosition=right;points=[];portConstraint=eastwest;strokeColor=inherit;" vertex="1" parent="sTXnCufKBytnzqRQy0jV-47">
          <mxGeometry y="104" width="340" height="8" as="geometry" />
        </mxCell>
        <mxCell id="sTXnCufKBytnzqRQy0jV-51" value="+ compararDia(Data data): Boolean" style="text;strokeColor=none;fillColor=none;align=left;verticalAlign=top;spacingLeft=4;spacingRight=4;overflow=hidden;rotatable=0;points=[[0,0.5],[1,0.5]];portConstraint=eastwest;whiteSpace=wrap;html=1;" vertex="1" parent="sTXnCufKBytnzqRQy0jV-47">
          <mxGeometry y="112" width="340" height="26" as="geometry" />
        </mxCell>
        <mxCell id="sTXnCufKBytnzqRQy0jV-53" value="+ compararMesAno(Data data): Boolean" style="text;strokeColor=none;fillColor=none;align=left;verticalAlign=top;spacingLeft=4;spacingRight=4;overflow=hidden;rotatable=0;points=[[0,0.5],[1,0.5]];portConstraint=eastwest;whiteSpace=wrap;html=1;" vertex="1" parent="sTXnCufKBytnzqRQy0jV-47">
          <mxGeometry y="138" width="340" height="26" as="geometry" />
        </mxCell>
        <mxCell id="sTXnCufKBytnzqRQy0jV-54" value="Evento" style="swimlane;fontStyle=1;align=center;verticalAlign=top;childLayout=stackLayout;horizontal=1;startSize=26;horizontalStack=0;resizeParent=1;resizeParentMax=0;resizeLast=0;collapsible=1;marginBottom=0;whiteSpace=wrap;html=1;" vertex="1" parent="1">
          <mxGeometry x="-430" y="320" width="340" height="164" as="geometry" />
        </mxCell>
        <mxCell id="sTXnCufKBytnzqRQy0jV-55" value="- nomeEvento:String" style="text;strokeColor=none;fillColor=none;align=left;verticalAlign=top;spacingLeft=4;spacingRight=4;overflow=hidden;rotatable=0;points=[[0,0.5],[1,0.5]];portConstraint=eastwest;whiteSpace=wrap;html=1;" vertex="1" parent="sTXnCufKBytnzqRQy0jV-54">
          <mxGeometry y="26" width="340" height="26" as="geometry" />
        </mxCell>
        <mxCell id="sTXnCufKBytnzqRQy0jV-56" value="- dtInicio: Data" style="text;strokeColor=none;fillColor=none;align=left;verticalAlign=top;spacingLeft=4;spacingRight=4;overflow=hidden;rotatable=0;points=[[0,0.5],[1,0.5]];portConstraint=eastwest;whiteSpace=wrap;html=1;" vertex="1" parent="sTXnCufKBytnzqRQy0jV-54">
          <mxGeometry y="52" width="340" height="26" as="geometry" />
        </mxCell>
        <mxCell id="sTXnCufKBytnzqRQy0jV-57" value="- dtFim: Data" style="text;strokeColor=none;fillColor=none;align=left;verticalAlign=top;spacingLeft=4;spacingRight=4;overflow=hidden;rotatable=0;points=[[0,0.5],[1,0.5]];portConstraint=eastwest;whiteSpace=wrap;html=1;" vertex="1" parent="sTXnCufKBytnzqRQy0jV-54">
          <mxGeometry y="78" width="340" height="26" as="geometry" />
        </mxCell>
        <mxCell id="sTXnCufKBytnzqRQy0jV-61" value="- hrInicio: Horario" style="text;strokeColor=none;fillColor=none;align=left;verticalAlign=top;spacingLeft=4;spacingRight=4;overflow=hidden;rotatable=0;points=[[0,0.5],[1,0.5]];portConstraint=eastwest;whiteSpace=wrap;html=1;" vertex="1" parent="sTXnCufKBytnzqRQy0jV-54">
          <mxGeometry y="104" width="340" height="26" as="geometry" />
        </mxCell>
        <mxCell id="sTXnCufKBytnzqRQy0jV-62" value="- hrFim: Horario" style="text;strokeColor=none;fillColor=none;align=left;verticalAlign=top;spacingLeft=4;spacingRight=4;overflow=hidden;rotatable=0;points=[[0,0.5],[1,0.5]];portConstraint=eastwest;whiteSpace=wrap;html=1;" vertex="1" parent="sTXnCufKBytnzqRQy0jV-54">
          <mxGeometry y="130" width="340" height="26" as="geometry" />
        </mxCell>
        <mxCell id="sTXnCufKBytnzqRQy0jV-58" value="" style="line;strokeWidth=1;fillColor=none;align=left;verticalAlign=middle;spacingTop=-1;spacingLeft=3;spacingRight=3;rotatable=0;labelPosition=right;points=[];portConstraint=eastwest;strokeColor=inherit;" vertex="1" parent="sTXnCufKBytnzqRQy0jV-54">
          <mxGeometry y="156" width="340" height="8" as="geometry" />
        </mxCell>
        <mxCell id="sTXnCufKBytnzqRQy0jV-67" value="Valores" style="swimlane;fontStyle=1;align=center;verticalAlign=top;childLayout=stackLayout;horizontal=1;startSize=26;horizontalStack=0;resizeParent=1;resizeParentMax=0;resizeLast=0;collapsible=1;marginBottom=0;whiteSpace=wrap;html=1;" vertex="1" parent="1">
          <mxGeometry x="-380" y="60" width="150" height="242" as="geometry" />
        </mxCell>
        <mxCell id="sTXnCufKBytnzqRQy0jV-68" value="- fracao: float" style="text;strokeColor=none;fillColor=none;align=left;verticalAlign=top;spacingLeft=4;spacingRight=4;overflow=hidden;rotatable=0;points=[[0,0.5],[1,0.5]];portConstraint=eastwest;whiteSpace=wrap;html=1;" vertex="1" parent="sTXnCufKBytnzqRQy0jV-67">
          <mxGeometry y="26" width="150" height="26" as="geometry" />
        </mxCell>
        <mxCell id="sTXnCufKBytnzqRQy0jV-69" value="- hora_cheia: float" style="text;strokeColor=none;fillColor=none;align=left;verticalAlign=top;spacingLeft=4;spacingRight=4;overflow=hidden;rotatable=0;points=[[0,0.5],[1,0.5]];portConstraint=eastwest;whiteSpace=wrap;html=1;" vertex="1" parent="sTXnCufKBytnzqRQy0jV-67">
          <mxGeometry y="52" width="150" height="26" as="geometry" />
        </mxCell>
        <mxCell id="sTXnCufKBytnzqRQy0jV-70" value="- diurna: float" style="text;strokeColor=none;fillColor=none;align=left;verticalAlign=top;spacingLeft=4;spacingRight=4;overflow=hidden;rotatable=0;points=[[0,0.5],[1,0.5]];portConstraint=eastwest;whiteSpace=wrap;html=1;" vertex="1" parent="sTXnCufKBytnzqRQy0jV-67">
          <mxGeometry y="78" width="150" height="26" as="geometry" />
        </mxCell>
        <mxCell id="sTXnCufKBytnzqRQy0jV-71" value="- noturna: float" style="text;strokeColor=none;fillColor=none;align=left;verticalAlign=top;spacingLeft=4;spacingRight=4;overflow=hidden;rotatable=0;points=[[0,0.5],[1,0.5]];portConstraint=eastwest;whiteSpace=wrap;html=1;" vertex="1" parent="sTXnCufKBytnzqRQy0jV-67">
          <mxGeometry y="104" width="150" height="26" as="geometry" />
        </mxCell>
        <mxCell id="sTXnCufKBytnzqRQy0jV-72" value="- mensalista: float" style="text;strokeColor=none;fillColor=none;align=left;verticalAlign=top;spacingLeft=4;spacingRight=4;overflow=hidden;rotatable=0;points=[[0,0.5],[1,0.5]];portConstraint=eastwest;whiteSpace=wrap;html=1;" vertex="1" parent="sTXnCufKBytnzqRQy0jV-67">
          <mxGeometry y="130" width="150" height="26" as="geometry" />
        </mxCell>
        <mxCell id="sTXnCufKBytnzqRQy0jV-73" value="- evento: float" style="text;strokeColor=none;fillColor=none;align=left;verticalAlign=top;spacingLeft=4;spacingRight=4;overflow=hidden;rotatable=0;points=[[0,0.5],[1,0.5]];portConstraint=eastwest;whiteSpace=wrap;html=1;" vertex="1" parent="sTXnCufKBytnzqRQy0jV-67">
          <mxGeometry y="156" width="150" height="26" as="geometry" />
        </mxCell>
        <mxCell id="sTXnCufKBytnzqRQy0jV-74" value="- retorno: float" style="text;strokeColor=none;fillColor=none;align=left;verticalAlign=top;spacingLeft=4;spacingRight=4;overflow=hidden;rotatable=0;points=[[0,0.5],[1,0.5]];portConstraint=eastwest;whiteSpace=wrap;html=1;" vertex="1" parent="sTXnCufKBytnzqRQy0jV-67">
          <mxGeometry y="182" width="150" height="26" as="geometry" />
        </mxCell>
        <mxCell id="sTXnCufKBytnzqRQy0jV-75" value="-desHora:float" style="text;strokeColor=none;fillColor=none;align=left;verticalAlign=top;spacingLeft=4;spacingRight=4;overflow=hidden;rotatable=0;points=[[0,0.5],[1,0.5]];portConstraint=eastwest;whiteSpace=wrap;html=1;" vertex="1" parent="sTXnCufKBytnzqRQy0jV-67">
          <mxGeometry y="208" width="150" height="26" as="geometry" />
        </mxCell>
        <mxCell id="sTXnCufKBytnzqRQy0jV-76" style="line;strokeWidth=1;fillColor=none;align=left;verticalAlign=middle;spacingTop=-1;spacingLeft=3;spacingRight=3;rotatable=0;labelPosition=right;points=[];portConstraint=eastwest;strokeColor=inherit;" vertex="1" parent="sTXnCufKBytnzqRQy0jV-67">
          <mxGeometry y="234" width="150" height="8" as="geometry" />
        </mxCell>
        <mxCell id="sTXnCufKBytnzqRQy0jV-77" value="Extends" style="endArrow=block;endSize=16;endFill=0;html=1;rounded=0;exitX=0.5;exitY=0;exitDx=0;exitDy=0;entryX=0.408;entryY=1.167;entryDx=0;entryDy=0;entryPerimeter=0;" edge="1" parent="1" source="sTXnCufKBytnzqRQy0jV-30" target="sTXnCufKBytnzqRQy0jV-25">
          <mxGeometry width="160" relative="1" as="geometry">
            <mxPoint x="140" y="760" as="sourcePoint" />
            <mxPoint x="300" y="760" as="targetPoint" />
          </mxGeometry>
        </mxCell>
        <mxCell id="sTXnCufKBytnzqRQy0jV-78" value="Extends" style="endArrow=block;endSize=16;endFill=0;html=1;rounded=0;exitX=0.5;exitY=0;exitDx=0;exitDy=0;entryX=0.755;entryY=1.134;entryDx=0;entryDy=0;entryPerimeter=0;" edge="1" parent="1" source="sTXnCufKBytnzqRQy0jV-26" target="sTXnCufKBytnzqRQy0jV-25">
          <mxGeometry width="160" relative="1" as="geometry">
            <mxPoint x="370" y="760" as="sourcePoint" />
            <mxPoint x="530" y="760" as="targetPoint" />
          </mxGeometry>
        </mxCell>
        <mxCell id="sTXnCufKBytnzqRQy0jV-79" value="Extends" style="endArrow=block;endSize=16;endFill=0;html=1;rounded=0;exitX=-0.018;exitY=0.149;exitDx=0;exitDy=0;exitPerimeter=0;entryX=0.992;entryY=1.097;entryDx=0;entryDy=0;entryPerimeter=0;" edge="1" parent="1" source="sTXnCufKBytnzqRQy0jV-39" target="sTXnCufKBytnzqRQy0jV-25">
          <mxGeometry width="160" relative="1" as="geometry">
            <mxPoint x="390" y="730" as="sourcePoint" />
            <mxPoint x="410" y="710" as="targetPoint" />
          </mxGeometry>
        </mxCell>
        <mxCell id="sTXnCufKBytnzqRQy0jV-80" value="Extends" style="endArrow=block;endSize=16;endFill=0;html=1;rounded=0;exitX=-0.018;exitY=0.174;exitDx=0;exitDy=0;exitPerimeter=0;entryX=1;entryY=0.5;entryDx=0;entryDy=0;" edge="1" parent="1" source="sTXnCufKBytnzqRQy0jV-35" target="sTXnCufKBytnzqRQy0jV-20">
          <mxGeometry width="160" relative="1" as="geometry">
            <mxPoint x="430" y="570" as="sourcePoint" />
            <mxPoint x="400" y="550" as="targetPoint" />
          </mxGeometry>
        </mxCell>
        <mxCell id="sTXnCufKBytnzqRQy0jV-81" value="Extends" style="endArrow=block;endSize=16;endFill=0;html=1;rounded=0;exitX=-0.012;exitY=0.148;exitDx=0;exitDy=0;exitPerimeter=0;entryX=1;entryY=0.5;entryDx=0;entryDy=0;" edge="1" parent="1" source="sTXnCufKBytnzqRQy0jV-38" target="sTXnCufKBytnzqRQy0jV-22">
          <mxGeometry width="160" relative="1" as="geometry">
            <mxPoint x="500" y="470" as="sourcePoint" />
            <mxPoint x="410" y="540" as="targetPoint" />
          </mxGeometry>
        </mxCell>
        <mxCell id="sTXnCufKBytnzqRQy0jV-82" value="acessos: Arraylist&amp;lt;&amp;gt;" style="endArrow=block;endFill=1;html=1;edgeStyle=orthogonalEdgeStyle;align=left;verticalAlign=top;rounded=0;exitX=0.277;exitY=1.029;exitDx=0;exitDy=0;exitPerimeter=0;entryX=0.5;entryY=0;entryDx=0;entryDy=0;" edge="1" parent="1" source="sTXnCufKBytnzqRQy0jV-16" target="sTXnCufKBytnzqRQy0jV-17">
          <mxGeometry x="-1" relative="1" as="geometry">
            <mxPoint x="210" y="410" as="sourcePoint" />
            <mxPoint x="370" y="410" as="targetPoint" />
            <Array as="points">
              <mxPoint x="220" y="391" />
            </Array>
          </mxGeometry>
        </mxCell>
        <mxCell id="sTXnCufKBytnzqRQy0jV-84" value="eventos:Arraylist&amp;lt;&amp;gt;" style="endArrow=block;endFill=1;html=1;edgeStyle=orthogonalEdgeStyle;align=left;verticalAlign=top;rounded=0;" edge="1" parent="1">
          <mxGeometry x="0.8319" relative="1" as="geometry">
            <mxPoint x="40" y="336" as="sourcePoint" />
            <mxPoint x="-90" y="336" as="targetPoint" />
            <Array as="points">
              <mxPoint x="30" y="336" />
            </Array>
            <mxPoint as="offset" />
          </mxGeometry>
        </mxCell>
        <mxCell id="sTXnCufKBytnzqRQy0jV-87" value="valores" style="endArrow=block;endFill=1;html=1;edgeStyle=orthogonalEdgeStyle;align=left;verticalAlign=top;rounded=0;exitX=0;exitY=0.063;exitDx=0;exitDy=0;exitPerimeter=0;" edge="1" parent="1" source="sTXnCufKBytnzqRQy0jV-9">
          <mxGeometry x="-0.5604" y="2" relative="1" as="geometry">
            <mxPoint x="-70" y="320" as="sourcePoint" />
            <mxPoint x="-220" y="120" as="targetPoint" />
            <Array as="points">
              <mxPoint x="-210" y="120" />
            </Array>
            <mxPoint as="offset" />
          </mxGeometry>
        </mxCell>
        <mxCell id="sTXnCufKBytnzqRQy0jV-88" value="1" style="edgeLabel;resizable=0;html=1;align=left;verticalAlign=bottom;" connectable="0" vertex="1" parent="sTXnCufKBytnzqRQy0jV-87">
          <mxGeometry x="-1" relative="1" as="geometry">
            <mxPoint x="-10" as="offset" />
          </mxGeometry>
        </mxCell>
        <mxCell id="sTXnCufKBytnzqRQy0jV-93" value="abrir" style="endArrow=block;endFill=1;html=1;edgeStyle=orthogonalEdgeStyle;align=left;verticalAlign=top;rounded=0;" edge="1" parent="1">
          <mxGeometry x="-1" relative="1" as="geometry">
            <mxPoint x="720" y="95.66" as="sourcePoint" />
            <mxPoint x="820" y="96" as="targetPoint" />
          </mxGeometry>
        </mxCell>
        <mxCell id="sTXnCufKBytnzqRQy0jV-94" value="1" style="edgeLabel;resizable=0;html=1;align=left;verticalAlign=bottom;" connectable="0" vertex="1" parent="sTXnCufKBytnzqRQy0jV-93">
          <mxGeometry x="-1" relative="1" as="geometry" />
        </mxCell>
        <mxCell id="sTXnCufKBytnzqRQy0jV-95" value="fechar" style="endArrow=block;endFill=1;html=1;edgeStyle=orthogonalEdgeStyle;align=left;verticalAlign=top;rounded=0;" edge="1" parent="1">
          <mxGeometry x="-1" relative="1" as="geometry">
            <mxPoint x="720" y="140" as="sourcePoint" />
            <mxPoint x="820" y="140" as="targetPoint" />
          </mxGeometry>
        </mxCell>
        <mxCell id="sTXnCufKBytnzqRQy0jV-96" value="1" style="edgeLabel;resizable=0;html=1;align=left;verticalAlign=bottom;" connectable="0" vertex="1" parent="sTXnCufKBytnzqRQy0jV-95">
          <mxGeometry x="-1" relative="1" as="geometry" />
        </mxCell>
        <mxCell id="sTXnCufKBytnzqRQy0jV-98" value="dtInicio" style="endArrow=block;endFill=1;html=1;edgeStyle=orthogonalEdgeStyle;align=left;verticalAlign=top;rounded=0;entryX=0.16;entryY=-0.019;entryDx=0;entryDy=0;entryPerimeter=0;" edge="1" parent="1" target="sTXnCufKBytnzqRQy0jV-47">
          <mxGeometry x="-1" relative="1" as="geometry">
            <mxPoint x="-380" y="490" as="sourcePoint" />
            <mxPoint x="-220" y="510" as="targetPoint" />
            <Array as="points">
              <mxPoint x="-380" y="557" />
            </Array>
          </mxGeometry>
        </mxCell>
        <mxCell id="sTXnCufKBytnzqRQy0jV-99" value="1" style="edgeLabel;resizable=0;html=1;align=left;verticalAlign=bottom;" connectable="0" vertex="1" parent="sTXnCufKBytnzqRQy0jV-98">
          <mxGeometry x="-1" relative="1" as="geometry">
            <mxPoint x="-10" y="16" as="offset" />
          </mxGeometry>
        </mxCell>
        <mxCell id="sTXnCufKBytnzqRQy0jV-100" value="dtFim" style="endArrow=block;endFill=1;html=1;edgeStyle=orthogonalEdgeStyle;align=left;verticalAlign=top;rounded=0;entryX=0.16;entryY=-0.019;entryDx=0;entryDy=0;entryPerimeter=0;" edge="1" parent="1">
          <mxGeometry x="-1" relative="1" as="geometry">
            <mxPoint x="-290" y="493" as="sourcePoint" />
            <mxPoint x="-276" y="570" as="targetPoint" />
            <Array as="points">
              <mxPoint x="-290" y="560" />
            </Array>
          </mxGeometry>
        </mxCell>
        <mxCell id="sTXnCufKBytnzqRQy0jV-101" value="1" style="edgeLabel;resizable=0;html=1;align=left;verticalAlign=bottom;" connectable="0" vertex="1" parent="sTXnCufKBytnzqRQy0jV-100">
          <mxGeometry x="-1" relative="1" as="geometry">
            <mxPoint x="-10" y="16" as="offset" />
          </mxGeometry>
        </mxCell>
        <mxCell id="sTXnCufKBytnzqRQy0jV-102" value="dtEntrada" style="endArrow=block;endFill=1;html=1;edgeStyle=orthogonalEdgeStyle;align=left;verticalAlign=top;rounded=0;" edge="1" parent="1">
          <mxGeometry x="-0.1667" relative="1" as="geometry">
            <mxPoint x="40" y="580" as="sourcePoint" />
            <mxPoint x="-80" y="580" as="targetPoint" />
            <mxPoint as="offset" />
          </mxGeometry>
        </mxCell>
        <mxCell id="sTXnCufKBytnzqRQy0jV-103" value="1" style="edgeLabel;resizable=0;html=1;align=left;verticalAlign=bottom;" connectable="0" vertex="1" parent="sTXnCufKBytnzqRQy0jV-102">
          <mxGeometry x="-1" relative="1" as="geometry">
            <mxPoint x="-10" y="4" as="offset" />
          </mxGeometry>
        </mxCell>
        <mxCell id="sTXnCufKBytnzqRQy0jV-104" value="dtSaida" style="endArrow=block;endFill=1;html=1;edgeStyle=orthogonalEdgeStyle;align=left;verticalAlign=top;rounded=0;" edge="1" parent="1">
          <mxGeometry x="-0.3333" relative="1" as="geometry">
            <mxPoint x="40" y="620" as="sourcePoint" />
            <mxPoint x="-80" y="620" as="targetPoint" />
            <mxPoint as="offset" />
          </mxGeometry>
        </mxCell>
        <mxCell id="sTXnCufKBytnzqRQy0jV-105" value="1" style="edgeLabel;resizable=0;html=1;align=left;verticalAlign=bottom;" connectable="0" vertex="1" parent="sTXnCufKBytnzqRQy0jV-104">
          <mxGeometry x="-1" relative="1" as="geometry">
            <mxPoint x="-10" y="2" as="offset" />
          </mxGeometry>
        </mxCell>
        <mxCell id="sTXnCufKBytnzqRQy0jV-106" value="entrada" style="endArrow=block;endFill=1;html=1;edgeStyle=orthogonalEdgeStyle;align=left;verticalAlign=top;rounded=0;exitX=1.01;exitY=0.077;exitDx=0;exitDy=0;exitPerimeter=0;entryX=0.132;entryY=0.973;entryDx=0;entryDy=0;entryPerimeter=0;" edge="1" parent="1" source="sTXnCufKBytnzqRQy0jV-17" target="sTXnCufKBytnzqRQy0jV-45">
          <mxGeometry x="0.9242" y="20" relative="1" as="geometry">
            <mxPoint x="1030" y="310" as="sourcePoint" />
            <mxPoint x="1120.000000000001" y="259.9979999999998" as="targetPoint" />
            <Array as="points">
              <mxPoint x="870" y="485" />
              <mxPoint x="870" y="170" />
              <mxPoint x="872" y="170" />
            </Array>
            <mxPoint as="offset" />
          </mxGeometry>
        </mxCell>
        <mxCell id="sTXnCufKBytnzqRQy0jV-107" value="1" style="edgeLabel;resizable=0;html=1;align=left;verticalAlign=bottom;" connectable="0" vertex="1" parent="sTXnCufKBytnzqRQy0jV-106">
          <mxGeometry x="-1" relative="1" as="geometry">
            <mxPoint x="466" y="-295" as="offset" />
          </mxGeometry>
        </mxCell>
        <mxCell id="sTXnCufKBytnzqRQy0jV-108" value="saida" style="endArrow=block;endFill=1;html=1;edgeStyle=orthogonalEdgeStyle;align=left;verticalAlign=top;rounded=0;exitX=1.011;exitY=0.442;exitDx=0;exitDy=0;exitPerimeter=0;" edge="1" parent="1" source="sTXnCufKBytnzqRQy0jV-21">
          <mxGeometry x="0.9187" y="10" relative="1" as="geometry">
            <mxPoint x="457" y="510" as="sourcePoint" />
            <mxPoint x="960" y="151.99599999999987" as="targetPoint" />
            <Array as="points">
              <mxPoint x="440" y="530" />
              <mxPoint x="960" y="530" />
            </Array>
            <mxPoint as="offset" />
          </mxGeometry>
        </mxCell>
        <mxCell id="sTXnCufKBytnzqRQy0jV-109" value="1" style="edgeLabel;resizable=0;html=1;align=left;verticalAlign=bottom;" connectable="0" vertex="1" parent="sTXnCufKBytnzqRQy0jV-108">
          <mxGeometry x="-1" relative="1" as="geometry">
            <mxPoint x="556" y="-349" as="offset" />
          </mxGeometry>
        </mxCell>
        <mxCell id="sTXnCufKBytnzqRQy0jV-114" value="hrFim" style="endArrow=block;endFill=1;html=1;edgeStyle=orthogonalEdgeStyle;align=left;verticalAlign=top;rounded=0;exitX=0;exitY=0.5;exitDx=0;exitDy=0;entryX=0.714;entryY=1.06;entryDx=0;entryDy=0;entryPerimeter=0;" edge="1" parent="1" source="sTXnCufKBytnzqRQy0jV-62" target="sTXnCufKBytnzqRQy0jV-45">
          <mxGeometry x="0.9816" y="20" relative="1" as="geometry">
            <mxPoint x="-460.03" y="491.49" as="sourcePoint" />
            <mxPoint x="1070" y="160" as="targetPoint" />
            <Array as="points">
              <mxPoint x="-470" y="463" />
              <mxPoint x="-470" y="958" />
              <mxPoint x="1070" y="958" />
            </Array>
            <mxPoint as="offset" />
          </mxGeometry>
        </mxCell>
        <mxCell id="sTXnCufKBytnzqRQy0jV-115" value="1" style="edgeLabel;resizable=0;html=1;align=left;verticalAlign=bottom;" connectable="0" vertex="1" parent="sTXnCufKBytnzqRQy0jV-114">
          <mxGeometry x="-1" relative="1" as="geometry">
            <mxPoint x="1500" y="-282" as="offset" />
          </mxGeometry>
        </mxCell>
        <mxCell id="sTXnCufKBytnzqRQy0jV-116" value="hrInicio" style="endArrow=block;endFill=1;html=1;edgeStyle=orthogonalEdgeStyle;align=left;verticalAlign=top;rounded=0;exitX=-0.002;exitY=0.59;exitDx=0;exitDy=0;entryX=0.714;entryY=1.06;entryDx=0;entryDy=0;entryPerimeter=0;exitPerimeter=0;" edge="1" parent="1" source="sTXnCufKBytnzqRQy0jV-61">
          <mxGeometry x="0.9816" y="20" relative="1" as="geometry">
            <mxPoint x="-389.99" y="461" as="sourcePoint" />
            <mxPoint x="1110.01" y="152" as="targetPoint" />
            <Array as="points">
              <mxPoint x="-440" y="439" />
              <mxPoint x="-510" y="440" />
              <mxPoint x="-510" y="970" />
              <mxPoint x="1110" y="970" />
            </Array>
            <mxPoint as="offset" />
          </mxGeometry>
        </mxCell>
        <mxCell id="sTXnCufKBytnzqRQy0jV-117" value="1" style="edgeLabel;resizable=0;html=1;align=left;verticalAlign=bottom;" connectable="0" vertex="1" parent="sTXnCufKBytnzqRQy0jV-116">
          <mxGeometry x="-1" relative="1" as="geometry">
            <mxPoint x="1541" y="-258" as="offset" />
          </mxGeometry>
        </mxCell>
      </root>
    </mxGraphModel>
  </diagram>
</mxfile>
